<?xml version="1.0" encoding="UTF-8"?>
<svg id="Artwork" xmlns="http://www.w3.org/2000/svg" version="1.1" viewBox="0 0 237.02 124.21">
  <!-- Generator: Adobe Illustrator 29.6.1, SVG Export Plug-In . SVG Version: 2.1.1 Build 9)  -->
  <path d="M103.07,87.88c-2.44,0-4.05.98-4.05,2.61,0,4.94,10.7,2.36,10.68,9.26,0,3.15-2.8,5.19-6.87,5.19-2.77,0-5.49-1.19-7.28-2.91l.98-1.87c1.77,1.68,4.18,2.66,6.33,2.66,2.74,0,4.45-1.11,4.45-2.96.03-5.08-10.67-2.39-10.67-9.21,0-2.99,2.63-4.89,6.57-4.89,2.2,0,4.46.71,6.03,1.76l-.92,1.93c-1.71-1.11-3.72-1.58-5.24-1.58"/>
  <polygon points="120.89 98.25 120.89 104.86 118.74 104.86 118.74 98.31 111.38 85.84 113.64 85.84 119.8 95.81 125.89 85.84 128.11 85.84 120.89 98.25"/>
  <path d="M136.65,87.88c-2.44,0-4.05.98-4.05,2.61,0,4.94,10.7,2.36,10.67,9.26,0,3.15-2.8,5.19-6.87,5.19-2.77,0-5.49-1.19-7.28-2.91l.98-1.87c1.77,1.68,4.18,2.66,6.33,2.66,2.74,0,4.45-1.11,4.45-2.96.03-5.08-10.67-2.39-10.67-9.21,0-2.99,2.63-4.89,6.57-4.89,2.2,0,4.46.71,6.03,1.76l-.92,1.93c-1.71-1.11-3.72-1.58-5.24-1.58"/>
  <polygon points="159.74 85.84 159.74 87.85 153.52 87.85 153.52 104.86 151.35 104.86 151.35 87.85 145.15 87.85 145.15 85.84 159.74 85.84"/>
  <polygon points="175.79 85.84 175.79 87.85 165.06 87.85 165.06 94.23 174.65 94.23 174.65 96.22 165.06 96.22 165.06 102.84 176.15 102.84 176.15 104.86 162.89 104.86 162.89 85.84 175.79 85.84"/>
  <polygon points="183.27 85.84 190.22 99.64 197.15 85.84 199.81 85.84 199.81 104.86 197.8 104.86 197.77 89.05 190.85 102.84 189.54 102.84 182.64 89.05 182.64 104.86 180.58 104.86 180.58 85.84 183.27 85.84"/>
  <path d="M211.11,87.88c-2.44,0-4.05.98-4.05,2.61,0,4.94,10.7,2.36,10.67,9.26,0,3.15-2.8,5.19-6.87,5.19-2.77,0-5.49-1.19-7.28-2.91l.98-1.87c1.76,1.68,4.18,2.66,6.33,2.66,2.74,0,4.45-1.11,4.45-2.96.03-5.08-10.67-2.39-10.67-9.21,0-2.99,2.63-4.89,6.57-4.89,2.2,0,4.45.71,6.03,1.76l-.92,1.93c-1.71-1.11-3.72-1.58-5.24-1.58"/>
  <g>
    <path d="M118.69,65.64l-4.58-11.93-4.67,11.93h9.25ZM121.26,72.31h-14.45l-2.34,5.91h-8.97l14.36-33.43h8.97l14.02,33.43h-9.3l-2.29-5.91Z"/>
    <path d="M155.7,56.81c0-3.29-2.05-5.06-5.58-5.06h-5.53v10.26h5.53c3.53,0,5.58-1.81,5.58-5.2M164,56.53c0,7.87-4.91,12.45-13.45,12.45h-5.96v9.25h-8.73v-33.43h14.69c8.54,0,13.45,4.29,13.45,11.73"/>
    <rect x="168.3" y="44.79" width="8.73" height="33.43"/>
    <path d="M190.34,61.53c0,5.44,4.24,9.64,9.2,9.64s9.01-4.2,9.01-9.64-4.01-9.54-9.01-9.54-9.2,4.1-9.2,9.54M217.52,61.49c0,9.78-7.73,17.12-18.08,17.12s-18.08-7.35-18.08-17.12,7.73-16.93,18.08-16.93,18.08,7.25,18.08,16.93"/>
    <polygon points="30.53 74.35 31.58 74.71 41.85 78.32 45.46 68.17 35.18 64.57 34.14 64.2 33.09 63.84 23.62 60.52 20.06 70.68 29.49 73.98 30.53 74.35"/>
    <polygon points="39.22 49.88 40.27 50.24 50.54 53.84 54.14 43.7 43.87 40.1 42.83 39.73 41.77 39.36 32.2 36.01 28.64 46.17 38.17 49.51 39.22 49.88"/>
    <polygon points="55.93 41.97 56.97 42.34 66.69 45.74 70.19 35.88 60.48 32.47 59.43 32.11 58.39 31.74 48.11 28.14 44.61 38.01 54.88 41.61 55.93 41.97"/>
    <polygon points="30.64 33.11 31.68 33.48 41.39 36.88 44.9 27.01 35.18 23.61 34.14 23.25 33.09 22.88 22.82 19.28 19.32 29.15 29.59 32.75 30.64 33.11"/>
    <polygon points="42.16 80.77 41.11 80.4 30.84 76.8 27.19 87.07 37.47 90.67 38.51 91.04 39.56 91.41 49.27 94.81 52.92 84.54 43.21 81.14 42.16 80.77"/>
    <polygon points="48.29 66.81 58 70.21 61.61 60.07 51.89 56.67 50.85 56.3 49.8 55.93 39.53 52.33 35.92 62.48 46.2 66.08 47.24 66.45 48.29 66.81"/>
  </g>
  <path d="M56.8,44.63l-3.61,10.15,9.71,3.4,1.04.37,1.05.37-.37,1.04-.37,1.04-3.61,10.15-.37,1.04-.37,1.04-1.04-.37-1.05-.37-9.71-3.4-3.61,10.15,9.71,3.4,1.04.37,1.05.37-.37,1.04-.37,1.04-3.65,10.27,16.63,5.83c3.71,1.3,7.81-.67,9.11-4.38l1.24-3.54.37-1.05.37-1.04,3.56-10.16.37-1.04.37-1.05,3.56-10.16.37-1.05.37-1.04,3.56-10.16.37-1.04.37-1.05,1.1-3.14c1.3-3.71-.67-7.81-4.38-9.11l-16.39-5.74-3.5,9.87-.37,1.04-.37,1.04-1.05-.37-1.05-.37-9.71-3.4Z"/>
</svg>