<?xml version="1.0" encoding="UTF-8"?>
<svg id="Artwork" xmlns="http://www.w3.org/2000/svg" version="1.1" viewBox="0 0 429.83 96.87">
  <!-- Generator: Adobe Illustrator 29.6.1, SVG Export Plug-In . SVG Version: 2.1.1 Build 9)  -->
  <g>
    <path d="M95.92,59.4l-4.57-11.91-4.67,11.91h9.24ZM98.5,66.06h-14.44l-2.34,5.9h-8.96l14.34-33.38h8.96l14.01,33.38h-9.29l-2.29-5.9Z"/>
    <path d="M132.91,50.59c0-3.29-2.05-5.05-5.58-5.05h-5.53v10.24h5.53c3.53,0,5.58-1.81,5.58-5.19M141.2,50.3c0,7.86-4.91,12.43-13.44,12.43h-5.96v9.24h-8.72v-33.38h14.68c8.53,0,13.44,4.29,13.44,11.71"/>
    <rect x="145.5" y="38.59" width="8.72" height="33.38"/>
    <path d="M167.52,55.3c0,5.43,4.24,9.62,9.2,9.62s9.01-4.19,9.01-9.62-4-9.52-9.01-9.52-9.2,4.1-9.2,9.52M194.68,55.25c0,9.76-7.72,17.1-18.06,17.1s-18.06-7.34-18.06-17.1,7.72-16.91,18.06-16.91,18.06,7.24,18.06,16.91"/>
    <polygon points="26.45 57.41 27.16 57.69 34.13 60.47 36.91 53.6 29.94 50.82 29.23 50.54 28.52 50.25 22.09 47.69 19.34 54.58 25.74 57.13 26.45 57.41"/>
    <polygon points="33.15 40.83 33.86 41.11 40.83 43.89 43.61 37.02 36.64 34.24 35.94 33.96 35.22 33.67 28.73 31.08 25.98 37.97 32.44 40.55 33.15 40.83"/>
    <polygon points="27.74 29.04 28.45 29.33 35.03 31.95 37.74 25.27 31.15 22.64 30.44 22.36 29.73 22.08 22.76 19.3 20.06 25.98 27.03 28.76 27.74 29.04"/>
    <polygon points="34.27 62.17 33.56 61.89 26.59 59.11 23.77 66.07 30.74 68.85 31.45 69.13 32.16 69.41 38.75 72.04 41.56 65.08 34.97 62.45 34.27 62.17"/>
    <polygon points="38.9 52.75 45.48 55.38 48.27 48.5 41.68 45.87 40.97 45.59 40.26 45.31 33.29 42.53 30.51 49.4 37.48 52.18 38.19 52.47 38.9 52.75"/>
  </g>
  <g>
    <path d="M211.56,42.2c-4.24,0-7.02,1.7-7.02,4.52,0,8.57,18.57,4.1,18.52,16.06,0,5.46-4.85,8.99-11.92,8.99-4.81,0-9.52-2.07-12.63-5.04l1.7-3.25c3.06,2.92,7.26,4.61,10.98,4.61,4.76,0,7.73-1.93,7.73-5.13.05-8.81-18.52-4.14-18.52-15.97,0-5.18,4.57-8.48,11.41-8.48,3.82,0,7.73,1.22,10.46,3.06l-1.6,3.34c-2.97-1.93-6.46-2.73-9.1-2.73"/>
    <polygon points="242.48 60.19 242.48 71.63 238.76 71.63 238.76 60.28 225.99 38.67 229.9 38.67 240.6 55.95 251.15 38.67 255.02 38.67 242.48 60.19"/>
    <path d="M269.82,42.2c-4.24,0-7.02,1.7-7.02,4.52,0,8.57,18.57,4.1,18.52,16.06,0,5.46-4.85,8.99-11.92,8.99-4.81,0-9.52-2.07-12.63-5.04l1.7-3.25c3.06,2.92,7.26,4.61,10.98,4.61,4.76,0,7.73-1.93,7.73-5.13.05-8.81-18.52-4.14-18.52-15.97,0-5.18,4.57-8.48,11.41-8.48,3.82,0,7.73,1.22,10.46,3.06l-1.6,3.34c-2.97-1.93-6.46-2.73-9.1-2.73"/>
    <polygon points="309.89 38.67 309.89 42.15 299.09 42.15 299.09 71.63 295.32 71.63 295.32 42.15 284.58 42.15 284.58 38.67 309.89 38.67"/>
    <polygon points="337.74 38.67 337.74 42.15 319.13 42.15 319.13 53.22 335.77 53.22 335.77 56.66 319.13 56.66 319.13 68.15 338.36 68.15 338.36 71.63 315.36 71.63 315.36 38.67 337.74 38.67"/>
    <polygon points="350.71 38.67 362.78 62.59 374.79 38.67 379.41 38.67 379.41 71.63 375.93 71.63 375.88 44.22 363.86 68.15 361.6 68.15 349.63 44.22 349.63 71.63 346.05 71.63 346.05 38.67 350.71 38.67"/>
    <path d="M399.03,42.2c-4.24,0-7.02,1.7-7.02,4.52,0,8.57,18.57,4.1,18.52,16.06,0,5.46-4.85,8.99-11.92,8.99-4.81,0-9.52-2.07-12.63-5.04l1.7-3.25c3.06,2.92,7.26,4.61,10.98,4.61,4.76,0,7.73-1.93,7.73-5.13.05-8.81-18.52-4.14-18.52-15.97,0-5.18,4.57-8.48,11.41-8.48,3.82,0,7.73,1.22,10.46,3.06l-1.6,3.34c-2.97-1.93-6.46-2.73-9.1-2.73"/>
    <polygon points="44.89 35.89 45.6 36.17 52.19 38.8 54.89 32.11 48.3 29.48 47.59 29.2 46.88 28.92 39.92 26.14 37.21 32.82 44.18 35.6 44.89 35.89"/>
    <path d="M45.41,37.74l-2.78,6.87,6.59,2.63.71.28.71.28-.29.71-.28.71-2.78,6.87-.28.71-.29.71-.71-.28-.71-.28-6.59-2.63-2.78,6.87,6.59,2.63.71.28.71.28-.28.71-.29.71-2.82,6.96,11.28,4.5c2.52,1,5.4-.23,6.4-2.75l.96-2.4.28-.71.28-.71,2.75-6.89.28-.71.28-.71,2.75-6.89.28-.71.28-.71,2.75-6.89.28-.71.28-.71.85-2.13c1-2.51-.23-5.39-2.75-6.4l-11.12-4.43-2.7,6.69-.29.71-.28.71-.71-.28-.71-.28-6.58-2.63Z"/>
  </g>
</svg>