<?xml version="1.0"?><svg version="1.2" baseProfile="tiny-ps" viewBox="0 0 900 900" xmlns="http://www.w3.org/2000/svg" xmlns:xlink="http://www.w3.org/1999/xlink"><title>Apio systems
</title><g><g fill="#feffff" transform="matrix(.1 0 0 -.1 0 900)"><path d="M0 4500V0h9000v9000H0V4500z"/></g><g fill="#fffbd8" transform="matrix(.1 0 0 -.1 0 900)"><path d="M781 6108c-10-24-41-112-70-196l-52-154 17-12c9-7 71-31 138-54s166-58 221-77c120-43 267-94 392-137l92-31 13 6 14 5 64 178c34 99 64 184 66 189 2 6 0 16-4 22l-8 13-175 61c-96 33-201 69-234 80s-69 24-80 29-49 18-85 30-109 37-163 56c-53 19-104 34-113 34h-15l-18-42zm965-410c-20-57-51-140-67-186l-31-83 5-12 5-12 168-59c93-32 205-71 249-87 44-15 121-42 170-59 50-18 125-45 167-61s84-29 92-29h15l20 63c11 34 39 114 62 177 22 63 43 124 46 135l4 20-283 99c-519 181-562 196-573 196h-12l-37-102zm-610-265c-14-38-41-115-61-173s-40-115-45-127l-9-23 5-15c4-8 7-15 9-15 3 0 353-121 460-160 50-18 108-38 130-45 22-8 86-30 143-49 56-20 107-36 112-36 12 0 32 39 58 115 11 33 37 105 56 159 20 55 36 110 36 122v22l-27 10c-44 16-159 57-270 96-213 75-311 109-418 147-60 21-119 39-131 39h-22l-26-67zm1580-35c-14-40-50-142-80-227-31-84-57-155-58-157-4-3-103 31-303 103-55 19-113 36-129 37l-30 1-69-194-69-193 9-8c4-4 103-40 218-80 116-40 213-76 218-80l7-6-46-130c-25-71-67-189-92-261l-47-133h-15c-8 0-109 34-225 74l-210 74-9-8c-9-9-32-69-70-185-13-38-33-94-45-124l-22-54 3-20 3-20 110-39c61-21 158-55 218-75l107-37v-13c0-12-49-153-105-303-29-77-55-163-51-167 3-3 259-95 346-124 30-10 120-41 199-68l143-51h115l61 31 61 30 30 38c34 42 60 98 90 193 19 59 74 218 136 388 15 41 35 100 45 130s32 93 48 140c17 47 90 254 162 460 73 206 150 429 172 495l40 120-6 49-5 49-22 41c-11 22-31 55-44 71l-23 31-50 27c-41 22-262 103-497 182-22 7-71 25-110 39-38 14-73 26-76 26-4 0-19-33-33-72zm4799-230c-81-16-191-56-258-95l-62-36-75-76-75-76-38-76-37-76-17-74-16-74v-160l16-74 16-73 32-64c17-35 55-95 84-132l53-67 57-40c74-53 118-77 188-104l58-21 105-15 104-15 105 15 106 15 78 30 79 31 69 49 70 49 47 53c55 62 106 156 137 253l23 70v120l1 120-23 70c-45 137-106 228-211 318l-56 47-65 33c-65 33-136 56-238 76l-54 11-76-1c-42-1-99-6-127-11zm281-345l52-23 42-46 42-45 26-57 25-57 1-90v-90l-31-66-30-66-43-41c-24-23-64-52-89-64l-46-23h-180l-50 25-50 25-43 43-44 43-24 53c-13 29-29 78-35 109l-12 56 17 68c22 85 52 137 111 192 73 67 153 93 260 83l50-5 51-24zm-3650 285c-13-29-86-197-161-373-76-176-148-343-161-372-13-28-43-100-68-160-25-59-65-155-91-213l-46-105 3-20 3-20h360l42 104c22 56 45 107 50 112l9 9 264-2 264-3 38-100c22-54 44-105 50-112l11-13 181 2 181 3 3 17 3 16-132 314c-72 172-140 336-151 363-11 28-28 68-38 90s-50 119-90 215-85 203-101 238l-29 62h-370l-24-52zm264-513c29-77 61-161 71-187l19-48h-310l19 48c10 26 44 114 76 195l57 149 7-9c4-4 31-71 61-148zm772-92l3-658h350l3 178 2 177h305l69 15 69 15 61 28 61 29 48 43 47 42 39 82 39 81 12 82 12 82-11 68c-23 131-43 176-115 251l-51 54-57 29c-32 16-84 36-115 44l-57 15h-716l2-657zm668 340l45-23 20-32 20-33v-144l-21-28c-11-15-35-38-53-50l-32-22-52-6c-29-3-92-5-142-3l-90 3-3 170c-1 93 0 175 3 183l5 14 127-4 128-3 45-22zm585 305c-3-7-4-303-3-658l3-645 172-3 172-2 11 19 10 20-2 638-3 638-178 3-177 2-5-12zm-4992-290c-5-7-19-40-31-73-11-33-41-117-65-187l-46-126 17-15c9-8 58-28 107-45 107-37 373-130 574-201 80-28 155-51 167-51h22l5 18c3 9 21 62 42 117 51 140 85 243 85 260v14l-27 15c-16 7-44 18-63 24-19 5-100 33-180 62-80 28-170 60-200 70s-120 42-200 71c-80 28-157 54-171 56l-25 5-11-14zm-607-311l-16-12-51-145c-28-80-57-163-65-185-7-22-14-46-14-53v-12l28-11c15-6 70-26 122-44 107-38 368-130 569-200l133-47 13 13c7 8 30 61 50 119 21 58 41 114 46 125 4 11 18 49 29 84l21 64-13 13c-11 11-268 105-433 159-51 17-342 120-376 133l-27 11-16-12zm266-643c-5-11-21-55-37-99-15-44-42-121-61-172-29-78-42-133-31-133 1 0 34-12 72-26 39-14 102-36 140-49 39-13 135-47 215-75s170-60 200-70 93-32 140-49 88-31 92-31c10 0 31 44 56 115 11 33 39 111 61 173l40 112-5 14-5 14-132 47c-73 26-181 64-242 85-60 22-182 64-270 95-88 32-174 59-192 62l-31 5-10-18zm2683-358c-84-39-125-97-125-174v-37l20-42 19-43 48-30 48-31 95-29c52-16 109-39 127-49l32-20 16-31 16-31-11-34-11-34-37-23-37-22h-140l-35 14c-19 7-59 29-88 47s-54 33-56 33c-3 0-14-16-26-36l-22-35 27-29 28-29 76-32 76-32 85-1 85-1 65 32 65 32 28 42 27 43v117l-14 28c-8 15-31 42-50 58l-34 31-54 19c-29 11-88 32-130 47l-78 28-25 30-25 30v60l31 29 31 29h173l53-25c30-14 58-25 63-25 12 0 41 59 37 77l-3 16-70 28-70 28-90 1h-90l-50-24zm455 14c0-14 80-155 214-375l61-100 3-133 4-133 46 3 47 3 5 135 5 135 29 50c16 28 56 95 88 150 33 55 64 109 70 120 7 11 27 46 45 78 18 33 33 63 33 68v9h-95l-70-117c-39-64-77-128-85-142-30-50-70-111-74-111-2 0-54 83-117 185l-114 185h-95v-10zm845-13l-51-24-26-31c-14-17-32-48-38-68l-12-36 6-40c4-22 13-53 22-70l15-29 47-30 47-30 85-26c104-31 154-56 174-85l16-22v-32c0-47-8-61-48-86l-37-23-75 1-75 2-40 17c-22 9-58 30-82 46-23 16-46 29-51 29-6 0-17-17-25-37l-15-38 21-23c29-31 130-77 201-92l59-12 53 7 54 6 57 29 58 29 25 38 25 37v143l-14 24c-7 13-28 36-46 52l-33 27-128 45-129 44-27 31-28 30v55l18 21c9 12 27 27 39 33l22 11h156l53-25c30-14 58-25 63-25s18 18 29 39l19 39-12 9c-7 5-37 20-67 33l-55 24-100 3-100 4-50-24zm459 9c-3-8-4-27-2-43l3-28 117-3 118-3 2-327 3-327 47-3 48-3 2 328 3 328 118 3 117 3v89h-571l-5-14zm686-361v-375h520v90l-212 2-213 3v240l188 3 187 2v80l-187 2-188 3-3 95c-2 52 0 105 3 118l5 22h409l6 21 7 20-6 25-6 24h-510v-375zm687 369l-7-7v-737h100l2 285 3 286 123-246 123-245h65l118 235c66 130 123 238 128 241l8 5v-561h90v751l-57-3-58-3-127-250c-70-137-128-254-130-258-2-5-63 108-135 250l-131 258-54 3c-30 2-57 0-61-4zm1070-8c-50-18-104-61-122-96l-15-29v-116l20-32c11-18 37-45 59-61l40-29 58-17c32-10 86-29 121-43l62-25 25-30 25-30v-54l-16-22c-8-12-30-30-47-39l-32-17h-70l-70 1-62 27c-34 16-70 37-79 47-9 11-22 19-28 19-14 0-46-52-46-74v-15l43-29c54-37 143-70 210-78l53-6 64 16 65 17 36 24 37 24 22 37 23 36 5 48 4 47-20 46-20 46-42 30-42 30-114 38-114 38-30 27-30 27v79l31 26 31 26h86l87-1 50-24c28-14 55-25 61-25 10 0 49 78 42 85-2 3-31 17-63 31l-60 27-100 4-100 3-38-14z"/></g><g fill="#f9e4a1" transform="matrix(.1 0 0 -.1 0 900)"><path d="M735 5950c-37-105-66-192-64-195 4-3 459-164 604-213 33-12 98-35 145-51 47-17 92-31 101-31h16l66 188 66 187-12 12c-7 6-41 20-77 32-36 11-123 41-195 67-122 43-334 117-488 170-38 13-75 24-82 24h-12l-68-190zm1011-252c-20-57-51-140-67-186l-31-83 5-12 5-12 168-59c93-32 205-71 249-87 44-15 121-42 170-59 50-18 125-45 167-61s84-29 92-29h15l20 63c11 34 39 114 62 177 22 63 43 124 46 135l4 20-283 99c-519 181-562 196-573 196h-12l-37-102zm-581-215c-15-37-97-270-115-326l-18-57 20-11c12-6 57-24 102-39s180-63 301-105 267-92 324-112l103-36 9 14c5 8 20 46 33 84 13 39 42 121 65 184 22 63 39 116 38 117-4 4-191 71-522 187-165 58-307 108-316 112l-16 6-8-18zm1551-85c-14-40-50-142-80-227-31-84-57-155-58-157-4-3-103 31-303 103-55 19-113 36-129 37l-30 1-69-194-69-193 9-8c4-4 103-40 218-80 116-40 213-76 218-80l7-6-46-130c-25-71-67-189-92-261l-47-133h-15c-8 0-109 34-225 74l-210 74-9-8c-9-9-32-69-70-185-13-38-33-94-45-124l-22-54 3-20 3-20 110-39c61-21 158-55 218-75l107-37v-13c0-12-49-153-105-303-29-77-55-163-51-167 3-3 259-95 346-124 30-10 120-41 199-68l143-51h115l61 31 61 30 30 38c34 42 60 98 90 193 19 59 74 218 136 388 15 41 35 100 45 130s32 93 48 140c17 47 90 254 162 460 73 206 150 429 172 495l40 120-6 49-5 49-22 41c-11 22-31 55-44 71l-23 31-50 27c-41 22-262 103-497 182-22 7-71 25-110 39-38 14-73 26-76 26-4 0-19-33-33-72zm4819-239c-91-13-182-44-264-90l-74-41-68-68-67-68-45-93-45-94-13-60-12-60 1-91 1-92 11-43c20-79 60-170 100-229l39-57 62-56 62-57 91-45 91-45 80-16 80-16 125 4 125 5 80 27c44 15 105 41 135 59l55 31 80 80 81 81 36 70c20 39 44 99 54 135l18 65v220l-18 65c-11 36-34 95-54 132l-34 68-60 64-59 65-72 45-72 44-72 26-72 25-83 11c-94 11-137 11-223-1zm265-326l54-27 41-41c22-23 51-63 64-90l24-48 10-72 11-72-17-68-17-68-31-49c-17-27-50-64-72-83l-40-35-54-20-54-20h-128l-56 21-55 20-54 50-54 49-25 54c-14 29-31 80-37 113l-12 60 12 59c15 73 50 142 96 194l36 39 55 27c31 15 72 31 92 35l36 8 60-5 60-4 55-27zm-3617 319c-9-6-160-348-236-532-3-8-78-181-165-385-88-203-158-373-155-377l4-8h345l46 113 46 112h553l39-102c21-56 41-107 45-113l6-10h359v14c0 8-43 117-96 243-53 125-105 251-116 278-11 28-28 68-38 90s-49 117-88 210c-133 321-194 460-206 467l-11 8h-320l-12-8zm193-440c10-26 44-114 76-197 32-82 58-153 58-157v-8h-330v10c0 8 115 304 150 388l10 23 9-6c5-3 17-27 27-53zm816 440l-12-8 2-645 3-644 172-3 173-2 2 177 3 178 185 6 185 6 65 22c90 31 138 61 194 120l47 52 26 55 25 56 15 87 15 87-15 87-15 87-23 48-23 47-51 51-52 52-51 26c-28 14-78 34-109 43l-58 16-345 4-345 4-13-9zm607-282l53-10 30-21 30-22 19-41 19-41v-100l-19-42-19-42-43-28-43-28h-291l-3 180c-1 98 0 185 2 192l5 13h104c57 0 128-4 156-10zm648 284l-7-7V3850l173 2 172 3v1300l-166 3-165 2-7-6zm-5004-311c-2-10-33-97-67-193l-63-175 11-11c6-7 65-30 131-53 66-22 179-62 250-87 292-103 421-147 446-151l27-5 25 69c56 147 107 297 107 314v17l-37 15c-21 8-60 22-88 30-27 8-198 67-379 131s-336 116-344 116h-14l-5-17zm-608-302c-7-13-135-379-135-388 0-5 15-14 33-20 17-7 156-55 307-108s326-115 388-137l114-40 8 8c5 5 20 41 33 79 14 39 44 123 67 189l42 118-9 8c-4 5-107 43-228 85s-296 104-390 137c-93 33-182 64-197 68l-28 9-5-8zm275-644c-11-26-67-180-105-289l-27-77 5-14 5-14 64-21c34-11 122-42 193-67 72-26 148-52 170-60 22-7 125-43 229-79l190-66 7 12c13 20 141 389 137 393-4 5-366 133-676 240l-183 64-9-22zm2675-351c-84-39-125-97-125-174v-37l20-42 19-43 48-30 48-31 95-29c52-16 109-39 127-49l32-20 16-31 16-31-11-34-11-34-37-23-37-22h-140l-35 14c-19 7-59 29-88 47s-54 33-56 33c-3 0-14-16-26-36l-22-35 27-29 28-29 76-32 76-32 85-1 85-1 65 32 65 32 28 42 27 43v117l-14 28c-8 15-31 42-50 58l-34 31-54 19c-29 11-88 32-130 47l-78 28-25 30-25 30v60l31 29 31 29h173l53-25c30-14 58-25 63-25 12 0 41 59 37 77l-3 16-70 28-70 28-90 1h-90l-50-24zm455 14c0-14 80-155 214-375l61-100 3-133 4-133 46 3 47 3 5 135 5 135 29 50c16 28 56 95 88 150 33 55 64 109 70 120 7 11 27 46 45 78 18 33 33 63 33 68v9h-95l-70-117c-39-64-77-128-85-142-30-50-70-111-74-111-2 0-54 83-117 185l-114 185h-95v-10zm845-13l-51-24-26-31c-14-17-32-48-38-68l-12-36 6-40c4-22 13-53 22-70l15-29 47-30 47-30 85-26c104-31 154-56 174-85l16-22v-32c0-47-8-61-48-86l-37-23-75 1-75 2-40 17c-22 9-58 30-82 46-23 16-46 29-51 29-6 0-17-17-25-37l-15-38 21-23c29-31 130-77 201-92l59-12 53 7 54 6 57 29 58 29 25 38 25 37v143l-14 24c-7 13-28 36-46 52l-33 27-128 45-129 44-27 31-28 30v55l18 21c9 12 27 27 39 33l22 11h156l53-25c30-14 58-25 63-25s18 18 29 39l19 39-12 9c-7 5-37 20-67 33l-55 24-100 3-100 4-50-24zm459 9c-3-8-4-27-2-43l3-28 117-3 118-3 2-327 3-327 47-3 48-3 2 328 3 328 118 3 117 3v89h-571l-5-14zm686-361v-375h520v90l-212 2-213 3v240l188 3 187 2v80l-187 2-188 3-3 95c-2 52 0 105 3 118l5 22h409l6 21 7 20-6 25-6 24h-510v-375zm687 369l-7-7v-737h100l2 285 3 286 123-246 123-245h65l118 235c66 130 123 238 128 241l8 5v-561h90v751l-57-3-58-3-127-250c-70-137-128-254-130-258-2-5-63 108-135 250l-131 258-54 3c-30 2-57 0-61-4zm1070-8c-50-18-104-61-122-96l-15-29v-116l20-32c11-18 37-45 59-61l40-29 58-17c32-10 86-29 121-43l62-25 25-30 25-30v-54l-16-22c-8-12-30-30-47-39l-32-17h-70l-70 1-62 27c-34 16-70 37-79 47-9 11-22 19-28 19-14 0-46-52-46-74v-15l43-29c54-37 143-70 210-78l53-6 64 16 65 17 36 24 37 24 22 37 23 36 5 48 4 47-20 46-20 46-42 30-42 30-114 38-114 38-30 27-30 27v79l31 26 31 26h86l87-1 50-24c28-14 55-25 61-25 10 0 49 78 42 85-2 3-31 17-63 31l-60 27-100 4-100 3-38-14z"/></g><g fill="#c8e7f9" transform="matrix(.1 0 0 -.1 0 900)"><path d="M801 6118c-37-97-121-341-121-351v-12l409-143c224-79 416-144 425-145l18-2 64 178c35 99 64 184 64 190v12l-413 144c-226 79-418 146-424 149l-13 4-9-24zm945-420c-20-57-51-140-67-186l-31-83 5-12 5-12 168-59c93-32 205-71 249-87 44-15 121-42 170-59 50-18 125-45 167-61s84-29 92-29h15l20 63c11 34 39 114 62 177 22 63 43 124 46 135l4 20-283 99c-519 181-562 196-573 196h-12l-37-102zm-603-290c-17-45-47-132-68-191l-38-108 9-9c5-5 164-63 354-130s375-132 412-145l68-24 8 17c19 37 135 372 131 377-5 4-793 282-830 292l-17 5-29-84zm1573-10c-14-40-50-142-80-227-31-84-57-155-58-157-4-3-103 31-303 103-55 19-113 36-129 37l-30 1-69-194-69-193 9-8c4-4 103-40 218-80 116-40 213-76 218-80l7-6-46-130c-25-71-67-189-92-261l-47-133h-15c-8 0-109 34-225 74l-210 74-9-8c-9-9-32-69-70-185-13-38-33-94-45-124l-22-54 3-20 3-20 110-39c61-21 158-55 218-75l107-37v-13c0-12-49-153-105-303-29-77-55-163-51-167 3-3 259-95 346-124 30-10 120-41 199-68l143-51h115l61 31 61 30 30 38c34 42 60 98 90 193 19 59 74 218 136 388 15 41 35 100 45 130s32 93 48 140c17 47 90 254 162 460 73 206 150 429 172 495l40 120-6 49-5 49-22 41c-11 22-31 55-44 71l-23 31-50 27c-41 22-262 103-497 182-22 7-71 25-110 39-38 14-73 26-76 26-4 0-19-33-33-72zm4792-248c-256-43-462-223-534-465l-18-60v-240l18-60c10-33 34-91 54-130l36-70 81-81 80-81 85-41c47-22 114-48 150-58l65-17 125-1h125l65 17c193 51 345 167 435 329l35 65 20 78 20 78v182l-16 65-15 65-36 75-37 75-80 81-81 81-95 46-95 46-77 16-77 15-93-1c-51-1-114-5-140-9zm284-307l47-21 46-43 47-43 31-61 32-60v-220l-29-59-29-60-44-44-44-44-57-26-57-26h-160l-58 26-58 27-54 55-53 55-22 58-22 58-5 63-6 63 18 65 18 65 36 48c56 75 105 111 186 138l40 13 75-3 75-4 47-20zm-3627 275c-7-18-131-306-274-641-144-334-261-609-261-612s78-5 173-5h173l44 113 45 112h559l19-50c10-27 29-78 44-112l26-63h179c98 0 178 2 178 4 0 1-21 52-46 112-91 215-337 801-369 879-18 44-53 127-77 185l-44 105-178 3-177 2-14-32zm273-553l81-209-12-8-12-8h-300l-12 8-12 8 69 179c39 99 78 197 87 218l16 38 7-8c4-4 44-102 88-218zm752-60v-645h340v350h113c61 0 150 5 196 10l84 10 64 21 63 21 59 44 59 44 31 49c18 27 41 75 52 106l20 58 6 81 5 81-11 59c-6 32-22 83-35 112l-25 53-45 49-46 49-49 26-50 27-77 20-77 20h-677v-645zm641 363c19-6 46-20 60-31l27-19 18-41 19-42-1-56-1-57-24-43-24-43-44-23-44-23h-287v390h267l34-12zm609-363v-645h340v1290h-340v-645zm-4984 346c-3-4-34-90-70-191l-66-184 8-8c9-9 260-99 752-269l84-29 8 8c4 4 37 90 73 191l66 184-8 8c-4 4-93 38-198 74-104 37-242 85-305 107s-166 57-227 78l-113 39-4-8zm-625-333c-44-119-121-347-121-359v-14l410-143c226-79 415-142 422-140l11 4 64 179c35 98 62 185 61 193l-3 14-393 138c-216 76-404 141-418 144l-24 6-9-22zm278-635c-38-101-129-366-126-369 2-2 88-33 193-69 202-71 303-106 509-179 72-25 135-46 141-46h11l67 188c36 103 66 192 66 198v11l-47 16c-27 8-215 74-420 146s-375 131-378 131-10-12-16-27zm2676-337c-84-39-125-97-125-174v-37l20-42 19-43 48-30 48-31 95-29c52-16 109-39 127-49l32-20 16-31 16-31-11-34-11-34-37-23-37-22h-140l-35 14c-19 7-59 29-88 47s-54 33-56 33c-3 0-14-16-26-36l-22-35 27-29 28-29 76-32 76-32 85-1 85-1 65 32 65 32 28 42 27 43v117l-14 28c-8 15-31 42-50 58l-34 31-54 19c-29 11-88 32-130 47l-78 28-25 30-25 30v60l31 29 31 29h173l53-25c30-14 58-25 63-25 12 0 41 59 37 77l-3 16-70 28-70 28-90 1h-90l-50-24zm455 14c0-14 80-155 214-375l61-100 3-133 4-133 46 3 47 3 5 135 5 135 29 50c16 28 56 95 88 150 33 55 64 109 70 120 7 11 27 46 45 78 18 33 33 63 33 68v9h-95l-70-117c-39-64-77-128-85-142-30-50-70-111-74-111-2 0-54 83-117 185l-114 185h-95v-10zm845-13l-51-24-26-31c-14-17-32-48-38-68l-12-36 6-40c4-22 13-53 22-70l15-29 47-30 47-30 85-26c104-31 154-56 174-85l16-22v-32c0-47-8-61-48-86l-37-23-75 1-75 2-40 17c-22 9-58 30-82 46-23 16-46 29-51 29-6 0-17-17-25-37l-15-38 21-23c29-31 130-77 201-92l59-12 53 7 54 6 57 29 58 29 25 38 25 37v143l-14 24c-7 13-28 36-46 52l-33 27-128 45-129 44-27 31-28 30v55l18 21c9 12 27 27 39 33l22 11h156l53-25c30-14 58-25 63-25s18 18 29 39l19 39-12 9c-7 5-37 20-67 33l-55 24-100 3-100 4-50-24zm459 9c-3-8-4-27-2-43l3-28 117-3 118-3 2-327 3-327 47-3 48-3 2 328 3 328 118 3 117 3v89h-571l-5-14zm686-361v-375h520v90l-212 2-213 3v240l188 3 187 2v80l-187 2-188 3-3 95c-2 52 0 105 3 118l5 22h409l6 21 7 20-6 25-6 24h-510v-375zm687 369l-7-7v-737h100l2 285 3 286 123-246 123-245h65l118 235c66 130 123 238 128 241l8 5v-561h90v751l-57-3-58-3-127-250c-70-137-128-254-130-258-2-5-63 108-135 250l-131 258-54 3c-30 2-57 0-61-4zm1070-8c-50-18-104-61-122-96l-15-29v-116l20-32c11-18 37-45 59-61l40-29 58-17c32-10 86-29 121-43l62-25 25-30 25-30v-54l-16-22c-8-12-30-30-47-39l-32-17h-70l-70 1-62 27c-34 16-70 37-79 47-9 11-22 19-28 19-14 0-46-52-46-74v-15l43-29c54-37 143-70 210-78l53-6 64 16 65 17 36 24 37 24 22 37 23 36 5 48 4 47-20 46-20 46-42 30-42 30-114 38-114 38-30 27-30 27v79l31 26 31 26h86l87-1 50-24c28-14 55-25 61-25 10 0 49 78 42 85-2 3-31 17-63 31l-60 27-100 4-100 3-38-14z"/></g><g fill="#efc76b" transform="matrix(.1 0 0 -.1 0 900)"><path d="M801 6118c-37-97-121-341-121-351v-12l409-143c224-79 416-144 425-145l18-2 64 178c35 99 64 184 64 190v12l-413 144c-226 79-418 146-424 149l-13 4-9-24zm981-335c-5-10-24-61-42-113s-45-131-61-174-28-80-27-82c8-7 835-294 848-294h15l63 178c35 97 64 183 65 190l2 14-45 15c-71 24-773 271-792 278l-16 7-10-19zm-639-375c-17-45-47-132-68-191l-38-108 9-9c5-5 164-63 354-130s375-132 412-145l68-24 8 17c19 37 135 372 131 377-5 4-793 282-830 292l-17 5-29-84zm1526-159c-41-116-79-218-85-227l-11-15-134 46c-74 26-174 60-222 77-49 17-90 30-92 28-6-6-135-374-135-385v-11l118-42c64-23 165-58 225-78l107-37-5-15c-3-8-47-130-97-272l-91-258h-9c-6 0-107 34-225 76l-216 75-8-8c-9-9-139-368-139-383 0-5 17-14 38-20 20-7 121-42 224-77l188-65-7-27c-3-14-19-60-34-101-65-174-119-331-119-342v-13l336-119 337-118 77 4 77 3 48 30 49 30 31 41 31 40 82 239c46 132 94 269 107 305 12 36 36 103 53 150 16 47 112 319 213 605l182 520 5 53 5 52-12 43c-7 23-25 60-40 82l-27 40-45 30-45 31-320 112c-177 62-325 112-331 112h-9l-75-211zm4839-99c-256-43-462-223-534-465l-18-60v-240l18-60c10-33 34-91 54-130l36-70 81-81 80-81 85-41c47-22 114-48 150-58l65-17 125-1h125l65 17c193 51 345 167 435 329l35 65 20 78 20 78v182l-16 65-15 65-36 75-37 75-80 81-81 81-95 46-95 46-77 16-77 15-93-1c-51-1-114-5-140-9zm284-307l47-21 46-43 47-43 31-61 32-60v-220l-29-59-29-60-44-44-44-44-57-26-57-26h-160l-58 26-58 27-54 55-53 55-22 58-22 58-5 63-6 63 18 65 18 65 36 48c56 75 105 111 186 138l40 13 75-3 75-4 47-20zm-3627 275c-7-18-131-306-274-641-144-334-261-609-261-612s78-5 173-5h173l44 113 45 112h559l19-50c10-27 29-78 44-112l26-63h179c98 0 178 2 178 4 0 1-21 52-46 112-91 215-337 801-369 879-18 44-53 127-77 185l-44 105-178 3-177 2-14-32zm273-553l81-209-12-8-12-8h-300l-12 8-12 8 69 179c39 99 78 197 87 218l16 38 7-8c4-4 44-102 88-218zm752-60v-645h340v350h113c61 0 150 5 196 10l84 10 64 21 63 21 59 44 59 44 31 49c18 27 41 75 52 106l20 58 6 81 5 81-11 59c-6 32-22 83-35 112l-25 53-45 49-46 49-49 26-50 27-77 20-77 20h-677v-645zm641 363c19-6 46-20 60-31l27-19 18-41 19-42-1-56-1-57-24-43-24-43-44-23-44-23h-287v390h267l34-12zm609-363v-645h340v1290h-340v-645zm-4984 346c-3-4-34-90-70-191l-66-184 8-8c9-9 260-99 752-269l84-29 8 8c4 4 37 90 73 191l66 184-8 8c-4 4-93 38-198 74-104 37-242 85-305 107s-166 57-227 78l-113 39-4-8zm-625-333c-44-119-121-347-121-359v-14l410-143c226-79 415-142 422-140l11 4 64 179c35 98 62 185 61 193l-3 14-393 138c-216 76-404 141-418 144l-24 6-9-22zm278-635c-38-101-129-366-126-369 2-2 88-33 193-69 202-71 303-106 509-179 72-25 135-46 141-46h11l67 188c36 103 66 192 66 198v11l-47 16c-27 8-215 74-420 146s-375 131-378 131-10-12-16-27zm2702-332c-67-23-99-47-122-91l-19-35v-106l14-27c30-57 79-87 208-128 46-15 100-35 120-45l38-19 15-30c8-16 15-40 15-53v-24l-22-28-21-27-33-14-33-14h-126l-56 23c-30 13-71 35-90 50l-35 26-17-28c-9-16-17-35-17-43 1-25 92-79 176-104l57-16 73 4 72 5 57 27 56 28 25 37 25 38 5 50 6 50-20 46-20 46-41 26-41 27-112 39c-62 22-124 47-138 58l-25 18-14 37-14 37 20 27c11 15 35 35 54 45l34 18 71-4 70-4 57-26 58-26 19 32c11 18 20 35 20 39 0 12-80 50-135 64l-50 14h-55l-55-1-54-18zm435 11c-2-4 57-111 132-237l137-230 5-135 5-135 43-3 42-3v258l101 174c167 285 177 304 172 312-2 4-21 7-43 7h-38l-83-137c-46-76-98-162-117-192l-35-54-13 18c-8 10-61 96-120 192l-106 173h-38c-22 0-41-3-44-8zm877-6c-23-7-58-23-78-36l-36-22-19-39-20-38v-102l15-30 16-29 40-30 40-29 109-36c60-20 124-46 142-58l33-23 9-36 9-36-12-31-13-30-42-21-42-20h-123l-52 20c-28 11-71 34-94 50l-43 30-16-34c-9-19-16-38-16-43 0-4 21-22 48-40l47-32 65-21 65-22 75 4 75 3 58 29 58 28 25 37 25 38 5 50 6 50-20 46-21 47-48 30-48 31-94 30c-112 36-145 52-165 81l-16 22v74l30 26 31 25 35 7c20 4 60 4 90 1l54-6 57-25c31-15 57-25 58-24 6 7 35 68 35 73 0 3-29 19-64 36l-64 30-83 4-84 5-42-14zm427-31v-45h240v-661l43 3 42 3 3 327 2 327 118 3 117 3v80l-282 3-283 2v-45zm685 33c-3-7-4-175-3-373l3-360 258-3 257-2v90h-430v250h370v80h-370v240l208 2 207 3v80l-248 3-247 2-5-12zm685-363v-375h80v591l8-5c4-2 63-117 132-255l125-251h55l129 258 130 257v-116c1-64 4-198 8-297l6-182h77l-2 373-3 372-46 3-46 3-10-13c-6-7-68-125-138-263-70-137-129-251-130-253-2-2-60 111-130 250s-132 259-137 266l-10 12h-98v-375zm1088 361l-47-13-36-27c-19-15-43-39-52-53l-17-25v-61l-1-62 18-30c10-16 36-42 57-57l38-28 113-36 114-37 33-33 32-32v-37c0-20-5-45-10-56l-11-19-41-21-42-21-75 4-76 5-55 27c-30 16-65 37-77 48l-22 20-20-33c-12-19-21-37-21-41 0-13 65-57 125-85l60-28h201l49 26 50 25 32 43 33 43v119l-15 29c-8 15-31 42-52 59l-37 31-123 41-122 40-31 35-30 35v61l28 28 29 28 47 7 48 8 47-6 47-6 58-25 57-25 15 34c8 19 14 38 14 43 0 12-83 48-141 61-58 14-133 13-191-3z"/></g><g fill="#eeb337" transform="matrix(.1 0 0 -.1 0 900)"><path d="M796 6088c-47-125-115-323-112-326 8-7 821-292 834-292 5 0 15 12 20 28 47 129 105 292 112 314l8 27-56 19c-32 11-218 77-415 146s-362 126-367 126c-4 0-15-19-24-42zm986-305c-5-10-24-61-42-113s-45-131-61-174-28-80-27-82c8-7 835-294 848-294h15l63 178c35 97 64 183 65 190l2 14-45 15c-71 24-773 271-792 278l-16 7-10-19zm-672-483l-62-180 5-12 5-13 394-138c217-76 403-139 413-140l19-2 18 50c65 178 108 305 108 317v14l-237 82c-234 81-314 109-484 171-47 17-93 31-101 31h-16l-62-180zm1559-51c-41-116-79-218-85-227l-11-15-134 46c-74 26-174 60-222 77-49 17-90 30-92 28-6-6-135-374-135-385v-11l118-42c64-23 165-58 225-78l107-37-5-15c-3-8-47-130-97-272l-91-258h-9c-6 0-107 34-225 76l-216 75-8-8c-9-9-139-368-139-383 0-5 17-14 38-20 20-7 121-42 224-77l188-65-7-27c-3-14-19-60-34-101-65-174-119-331-119-342v-13l336-119 337-118 77 4 77 3 48 30 49 30 31 41 31 40 82 239c46 132 94 269 107 305 12 36 36 103 53 150 16 47 112 319 213 605l182 520 5 53 5 52-12 43c-7 23-25 60-40 82l-27 40-45 30-45 31-320 112c-177 62-325 112-331 112h-9l-75-211zm4876-98c-27-5-79-16-115-26l-65-17-70-36-70-37-81-80-82-80-32-65c-18-36-41-96-51-135l-19-70v-200l19-70c22-86 60-162 119-239l45-58 61-46c33-24 93-59 131-77l70-32 74-17 73-16h203l84 20 84 20 81 43 81 42 71 70 71 70 31 55c17 30 43 91 58 135l28 80v240l-29 85-29 85-51 75-51 75-59 48c-33 27-91 64-129 84l-68 34-77 20-76 20-90 4-90 4-50-8zm190-285c68-18 109-40 160-87l42-39 33-71 33-72 5-67 4-66-17-60c-20-72-52-127-100-176l-37-37-56-28-57-28h-95l-95 1-53 27-54 28-42 43-43 42-29 60-29 59v220l25 50c49 100 142 176 244 201 68 16 101 16 161 0zm-3569 236c-13-26-36-76-51-112s-37-90-50-120-111-260-220-510c-108-250-199-465-202-477l-5-23h330l32 78c17 42 38 94 47 115l16 37h563l45-112 44-113 173-3 172-2v8c0 5-50 128-111 273s-122 289-134 319c-26 63-143 341-186 445-17 39-44 104-60 145-17 41-35 81-41 88l-10 12h-328l-24-48zm273-527c45-116 81-216 81-223v-12h-350v15c0 9 7 32 16 53 8 20 42 107 76 192 33 85 64 166 69 179l10 24 8-9c5-5 46-104 90-219zm753-67l3-643 163-3 162-2v335l8 11 7 12 180 5 180 5 59 17 58 16 61 37 61 37 42 52 42 51 23 59 24 58v280l-31 65-31 65-47 47-47 47-62 31-62 30-89 15-89 15h-617l2-642zm658 359c19-8 47-28 63-44l27-30 10-34c13-43 13-105 0-148l-10-35-32-33-32-34-50-14-50-15h-244l-6 16c-8 21-8 358 0 379l7 17 141-4 141-5 35-16zm600-362v-645h330v1290h-330v-645zm-5001 318c-13-34-96-265-112-311l-11-32 10-10c5-5 95-39 199-75 105-37 286-100 403-142l213-75 13 5 12 5 63 177c34 97 60 182 59 187l-4 11-179 63c-99 35-225 79-280 98s-158 55-230 80c-71 25-133 46-138 46-4 0-12-12-18-27zm-622-335c-43-114-117-332-114-335 4-3 149-56 277-100 41-14 176-61 299-104 196-69 261-88 261-76 0 2 21 59 46 128 36 99 83 237 84 246 0 1-21 8-47 16-45 14-225 77-607 211-87 31-164 56-171 56h-12l-16-42zm285-615c-16-41-76-208-103-285-12-37-21-69-18-71 4-4 341-123 657-233l183-63 10 27c5 15 21 56 34 92 43 117 84 235 87 253l3 19-125 45c-69 24-138 48-155 53-16 5-144 50-284 100-140 49-260 90-267 90h-12l-10-27zm2699-322c-67-23-99-47-122-91l-19-35v-106l14-27c30-57 79-87 208-128 46-15 100-35 120-45l38-19 15-30c8-16 15-40 15-53v-24l-22-28-21-27-33-14-33-14h-126l-56 23c-30 13-71 35-90 50l-35 26-17-28c-9-16-17-35-17-43 1-25 92-79 176-104l57-16 73 4 72 5 57 27 56 28 25 37 25 38 5 50 6 50-20 46-20 46-41 26-41 27-112 39c-62 22-124 47-138 58l-25 18-14 37-14 37 20 27c11 15 35 35 54 45l34 18 71-4 70-4 57-26 58-26 19 32c11 18 20 35 20 39 0 12-80 50-135 64l-50 14h-55l-55-1-54-18zm435 11c-2-4 57-111 132-237l137-230 5-135 5-135 43-3 42-3v258l101 174c167 285 177 304 172 312-2 4-21 7-43 7h-38l-83-137c-46-76-98-162-117-192l-35-54-13 18c-8 10-61 96-120 192l-106 173h-38c-22 0-41-3-44-8zm877-6c-23-7-58-23-78-36l-36-22-19-39-20-38v-102l15-30 16-29 40-30 40-29 109-36c60-20 124-46 142-58l33-23 9-36 9-36-12-31-13-30-42-21-42-20h-123l-52 20c-28 11-71 34-94 50l-43 30-16-34c-9-19-16-38-16-43 0-4 21-22 48-40l47-32 65-21 65-22 75 4 75 3 58 29 58 28 25 37 25 38 5 50 6 50-20 46-21 47-48 30-48 31-94 30c-112 36-145 52-165 81l-16 22v74l30 26 31 25 35 7c20 4 60 4 90 1l54-6 57-25c31-15 57-25 58-24 6 7 35 68 35 73 0 3-29 19-64 36l-64 30-83 4-84 5-42-14zm427-31v-45h240v-661l43 3 42 3 3 327 2 327 118 3 117 3v80l-282 3-283 2v-45zm685 33c-3-7-4-175-3-373l3-360 258-3 257-2v90h-430v250h370v80h-370v240l208 2 207 3v80l-248 3-247 2-5-12zm685-363v-375h80v591l8-5c4-2 63-117 132-255l125-251h55l129 258 130 257v-116c1-64 4-198 8-297l6-182h77l-2 373-3 372-46 3-46 3-10-13c-6-7-68-125-138-263-70-137-129-251-130-253-2-2-60 111-130 250s-132 259-137 266l-10 12h-98v-375zm1088 361l-47-13-36-27c-19-15-43-39-52-53l-17-25v-61l-1-62 18-30c10-16 36-42 57-57l38-28 113-36 114-37 33-33 32-32v-37c0-20-5-45-10-56l-11-19-41-21-42-21-75 4-76 5-55 27c-30 16-65 37-77 48l-22 20-20-33c-12-19-21-37-21-41 0-13 65-57 125-85l60-28h201l49 26 50 25 32 43 33 43v119l-15 29c-8 15-31 42-52 59l-37 31-123 41-122 40-31 35-30 35v61l28 28 29 28 47 7 48 8 47-6 47-6 58-25 57-25 15 34c8 19 14 38 14 43 0 12-83 48-141 61-58 14-133 13-191-3z"/></g><g fill="#fdb116" transform="matrix(.1 0 0 -.1 0 900)"><path d="M816 6112c-9-15-116-325-116-337v-10l133-47c72-25 211-74 307-108s220-77 274-96l100-34 8 8c4 4 14 28 22 52 8 25 31 90 51 145s39 110 42 121l5 22-11 7c-6 3-75 29-154 57-309 108-544 191-582 203-22 7-47 16-56 20l-17 6-6-9zm966-329c-5-10-24-61-42-113s-45-131-61-174-28-80-27-82c8-7 835-294 848-294h15l63 178c35 97 64 183 65 190l2 14-45 15c-71 24-773 271-792 278l-16 7-10-19zm-610-340c-46-118-112-319-108-328 5-13 2-12 396-150 151-53 305-107 342-121l68-23 14 27c7 15 18 43 24 62s27 80 47 135c21 55 40 109 42 121l5 21-59 21c-75 27-357 126-448 157-38 13-121 42-184 64-63 23-118 41-122 41-3 0-11-12-17-27zm1497-194c-41-116-79-218-85-227l-11-15-134 46c-74 26-174 60-222 77-49 17-90 30-92 28-6-6-135-374-135-385v-11l118-42c64-23 165-58 225-78l107-37-5-15c-3-8-47-130-97-272l-91-258h-9c-6 0-107 34-225 76l-216 75-8-8c-9-9-139-368-139-383 0-5 17-14 38-20 20-7 121-42 224-77l188-65-7-27c-3-14-19-60-34-101-65-174-119-331-119-342v-13l336-119 337-118 77 4 77 3 48 30 49 30 31 41 31 40 82 239c46 132 94 269 107 305 12 36 36 103 53 150 16 47 112 319 213 605l182 520 5 53 5 52-12 43c-7 23-25 60-40 82l-27 40-45 30-45 31-320 112c-177 62-325 112-331 112h-9l-75-211zm4886-110l-80-8-73-25c-130-44-241-124-318-228l-43-58-32-83-32-82-5-120-4-120 16-65c9-35 32-96 51-135l33-70 58-63 57-63 56-38c31-20 82-49 113-64l57-26 82-17 83-17 120 6 121 5 65 22c36 12 92 36 125 53l60 31 85 86 85 85 32 65 32 65 21 80 20 80v140l-20 78c-23 93-41 133-91 208l-38 56-63 58-63 57-80 38-80 38-65 15c-85 20-186 25-285 16zm206-270l64-21 33-25c49-37 80-73 112-127l29-50 12-69 13-69-12-69-12-69-22-48-22-47-51-50-50-51-40-19c-22-10-66-24-98-30l-57-13-63 12-62 12-48 24-48 24-45 48-45 49-27 57-27 57-3 95-4 95 21 56 21 56 35 45c19 25 54 59 78 76l43 30 59 20 60 21h46l46 1 64-21zm-3580 249c-13-34-185-436-209-488-11-25-38-88-60-140s-49-117-61-145c-12-27-62-142-110-255l-89-205 7-8 8-8 148 3 149 3 40 100c23 56 45 106 49 113l8 12h554l12-8c7-4 28-50 48-102s41-100 47-107l10-13h308v13c0 13-55 148-227 557-35 85-71 169-78 185-7 17-48 113-90 215s-88 211-102 243l-26 57h-327l-9-22zm223-423c21-55 42-109 47-120 19-43 79-211 79-221 0-20-28-24-185-24-84 0-160 3-169 6l-16 6v15c0 7 34 100 76 206s80 202 85 215l9 23 18-3 17-3 39-100zm801 433c-3-7-4-292-3-633l3-620h300l5 165 5 165 8 13 8 12h292l66 11 66 12 63 28c74 33 124 73 170 138l32 45 21 69 21 70-4 111-4 111-24 60-23 60-56 55-56 56-48 23c-26 13-71 30-100 38l-52 16-342 4-343 5-5-14zm671-263l47-30 23-45 23-45 1-58v-57l-21-45-21-45-29-20c-15-11-47-27-70-35l-42-15h-256l-11 19-10 20v352l11 21 11 20 148-4 148-4 48-29zm586-357l3-633h300l3 633 2 632h-310l2-632zm-4996 324c-11-19-126-336-126-348 0-10 75-37 614-225 110-38 202-69 206-69s10 8 13 18c3 9 31 90 62 180 32 89 56 164 54 166s-44 17-94 34c-105 36-223 77-465 162-221 78-259 90-264 82zm-631-348c-8-20-15-39-15-43 0-3-20-62-45-130s-45-131-45-140v-17l163-56c89-31 241-84 337-118s203-71 238-83l62-21 9 10c8 8 63 157 109 297l16 47-10 9c-5 4-83 34-174 66-161 56-435 152-555 194-32 11-63 21-67 21s-15-16-23-36zm285-616c-22-53-120-341-117-344 3-4 253-93 362-129 39-13 115-40 170-60 138-50 274-95 284-95 5 0 25 46 45 103 20 56 48 131 61 167 14 36 25 73 25 82v16l-17 5c-10 3-94 32-188 65-400 141-605 212-610 212-3 0-10-10-15-22zm2691-317c-67-23-99-47-122-91l-19-35v-106l14-27c30-57 79-87 208-128 46-15 100-35 120-45l38-19 15-30c8-16 15-40 15-53v-24l-22-28-21-27-33-14-33-14h-126l-56 23c-30 13-71 35-90 50l-35 26-17-28c-9-16-17-35-17-43 1-25 92-79 176-104l57-16 73 4 72 5 57 27 56 28 25 37 25 38 5 50 6 50-20 46-20 46-41 26-41 27-112 39c-62 22-124 47-138 58l-25 18-14 37-14 37 20 27c11 15 35 35 54 45l34 18 71-4 70-4 57-26 58-26 19 32c11 18 20 35 20 39 0 12-80 50-135 64l-50 14h-55l-55-1-54-18zm435 11c-2-4 57-111 132-237l137-230 5-135 5-135 43-3 42-3v258l101 174c167 285 177 304 172 312-2 4-21 7-43 7h-38l-83-137c-46-76-98-162-117-192l-35-54-13 18c-8 10-61 96-120 192l-106 173h-38c-22 0-41-3-44-8zm877-6c-23-7-58-23-78-36l-36-22-19-39-20-38v-102l15-30 16-29 40-30 40-29 109-36c60-20 124-46 142-58l33-23 9-36 9-36-12-31-13-30-42-21-42-20h-123l-52 20c-28 11-71 34-94 50l-43 30-16-34c-9-19-16-38-16-43 0-4 21-22 48-40l47-32 65-21 65-22 75 4 75 3 58 29 58 28 25 37 25 38 5 50 6 50-20 46-21 47-48 30-48 31-94 30c-112 36-145 52-165 81l-16 22v74l30 26 31 25 35 7c20 4 60 4 90 1l54-6 57-25c31-15 57-25 58-24 6 7 35 68 35 73 0 3-29 19-64 36l-64 30-83 4-84 5-42-14zm427-31v-45h240v-661l43 3 42 3 3 327 2 327 118 3 117 3v80l-282 3-283 2v-45zm685 33c-3-7-4-175-3-373l3-360 258-3 257-2v90h-430v250h370v80h-370v240l208 2 207 3v80l-248 3-247 2-5-12zm685-363v-375h80v591l8-5c4-2 63-117 132-255l125-251h55l129 258 130 257v-116c1-64 4-198 8-297l6-182h77l-2 373-3 372-46 3-46 3-10-13c-6-7-68-125-138-263-70-137-129-251-130-253-2-2-60 111-130 250s-132 259-137 266l-10 12h-98v-375zm1088 361l-47-13-36-27c-19-15-43-39-52-53l-17-25v-61l-1-62 18-30c10-16 36-42 57-57l38-28 113-36 114-37 33-33 32-32v-37c0-20-5-45-10-56l-11-19-41-21-42-21-75 4-76 5-55 27c-30 16-65 37-77 48l-22 20-20-33c-12-19-21-37-21-41 0-13 65-57 125-85l60-28h201l49 26 50 25 32 43 33 43v119l-15 29c-8 15-31 42-52 59l-37 31-123 41-122 40-31 35-30 35v61l28 28 29 28 47 7 48 8 47-6 47-6 58-25 57-25 15 34c8 19 14 38 14 43 0 12-83 48-141 61-58 14-133 13-191-3z"/></g><g fill="#87b4de" transform="matrix(.1 0 0 -.1 0 900)"><path d="M1782 5783c-5-10-24-61-42-113s-45-131-61-174-28-80-27-82c8-7 835-294 848-294h15l63 178c35 97 64 183 65 190l2 14-45 15c-71 24-773 271-792 278l-16 7-10-19zm887-534c-41-116-79-218-85-227l-11-15-134 46c-74 26-174 60-222 77-49 17-90 30-92 28-6-6-135-374-135-385v-11l118-42c64-23 165-58 225-78l107-37-5-15c-3-8-47-130-97-272l-91-258h-9c-6 0-107 34-225 76l-216 75-8-8c-9-9-139-368-139-383 0-5 17-14 38-20 20-7 121-42 224-77l188-65-7-27c-3-14-19-60-34-101-65-174-119-331-119-342v-13l336-119 337-118 77 4 77 3 48 30 49 30 31 41 31 40 82 239c46 132 94 269 107 305 12 36 36 103 53 150 16 47 112 319 213 605l182 520 5 53 5 52-12 43c-7 23-25 60-40 82l-27 40-45 30-45 31-320 112c-177 62-325 112-331 112h-9l-75-211zm1142-1698c-67-23-99-47-122-91l-19-35v-106l14-27c30-57 79-87 208-128 46-15 100-35 120-45l38-19 15-30c8-16 15-40 15-53v-24l-22-28-21-27-33-14-33-14h-126l-56 23c-30 13-71 35-90 50l-35 26-17-28c-9-16-17-35-17-43 1-25 92-79 176-104l57-16 73 4 72 5 57 27 56 28 25 37 25 38 5 50 6 50-20 46-20 46-41 26-41 27-112 39c-62 22-124 47-138 58l-25 18-14 37-14 37 20 27c11 15 35 35 54 45l34 18 71-4 70-4 57-26 58-26 19 32c11 18 20 35 20 39 0 12-80 50-135 64l-50 14h-55l-55-1-54-18zm435 11c-2-4 57-111 132-237l137-230 5-135 5-135 43-3 42-3v258l101 174c167 285 177 304 172 312-2 4-21 7-43 7h-38l-83-137c-46-76-98-162-117-192l-35-54-13 18c-8 10-61 96-120 192l-106 173h-38c-22 0-41-3-44-8zm877-6c-23-7-58-23-78-36l-36-22-19-39-20-38v-102l15-30 16-29 40-30 40-29 109-36c60-20 124-46 142-58l33-23 9-36 9-36-12-31-13-30-42-21-42-20h-123l-52 20c-28 11-71 34-94 50l-43 30-16-34c-9-19-16-38-16-43 0-4 21-22 48-40l47-32 65-21 65-22 75 4 75 3 58 29 58 28 25 37 25 38 5 50 6 50-20 46-21 47-48 30-48 31-94 30c-112 36-145 52-165 81l-16 22v74l30 26 31 25 35 7c20 4 60 4 90 1l54-6 57-25c31-15 57-25 58-24 6 7 35 68 35 73 0 3-29 19-64 36l-64 30-83 4-84 5-42-14zm427-31v-45h240v-661l43 3 42 3 3 327 2 327 118 3 117 3v80l-282 3-283 2v-45zm685 33c-3-7-4-175-3-373l3-360 258-3 257-2v90h-430v250h370v80h-370v240l208 2 207 3v80l-248 3-247 2-5-12zm685-363v-375h80v591l8-5c4-2 63-117 132-255l125-251h55l129 258 130 257v-116c1-64 4-198 8-297l6-182h77l-2 373-3 372-46 3-46 3-10-13c-6-7-68-125-138-263-70-137-129-251-130-253-2-2-60 111-130 250s-132 259-137 266l-10 12h-98v-375zm1088 361l-47-13-36-27c-19-15-43-39-52-53l-17-25v-61l-1-62 18-30c10-16 36-42 57-57l38-28 113-36 114-37 33-33 32-32v-37c0-20-5-45-10-56l-11-19-41-21-42-21-75 4-76 5-55 27c-30 16-65 37-77 48l-22 20-20-33c-12-19-21-37-21-41 0-13 65-57 125-85l60-28h201l49 26 50 25 32 43 33 43v119l-15 29c-8 15-31 42-52 59l-37 31-123 41-122 40-31 35-30 35v61l28 28 29 28 47 7 48 8 47-6 47-6 58-25 57-25 15 34c8 19 14 38 14 43 0 12-83 48-141 61-58 14-133 13-191-3z"/></g><g fill="#3274c5" transform="matrix(.1 0 0 -.1 0 900)"><path d="M1779 5763c-25-64-119-336-119-344 0-4 24-15 53-24 28-8 81-26 117-40 70-26 669-235 674-235 2 0 20 46 41 103 21 56 51 139 68 185 16 45 28 85 25 87-4 4-145 55-403 145-44 15-159 55-255 89s-178 61-183 61c-4 0-12-12-18-27zm967-312c-3-4-18-46-34-92-52-151-125-354-128-358-2-2-101 31-219 73-119 42-223 76-230 76h-13l-15-47c-8-27-38-111-66-188l-51-139 8-7c4-5 103-41 220-83 118-41 216-77 219-80 5-5-172-521-187-546l-6-10-130 45c-71 25-173 61-226 80l-97 33-15-41c-9-23-40-111-70-195l-54-153 12-5c6-2 108-38 226-79 118-42 216-77 218-79 1-2-7-28-19-57-31-80-141-392-143-407l-1-13 325-115 325-115 51-6 50-5 57 16 57 17 35 30c19 17 44 44 55 59l20 28 196 559c108 307 206 587 219 623s69 196 124 355l101 290v59c0 32-5 76-12 98l-12 39-39 45c-49 56-66 64-257 131-85 30-230 81-322 113l-167 59-5-8zm1062-1902l-36-11-40-33-39-34-13-45-12-45 7-38c10-53 32-86 76-115l39-25 112-37c148-49 178-74 178-149v-34l-21-26-20-27-51-15c-67-20-93-19-170 5l-65 20-41 30c-23 16-44 30-47 30-2 0-12-14-20-31l-16-31 16-18c8-9 44-31 78-49l62-31 62-8 63-9 60 9 60 8 38 19c70 36 102 87 102 166 0 110-47 155-221 210-46 15-101 37-122 49l-39 21-14 27c-28 55-11 104 49 135l32 17h65l65-1 66-26c36-15 68-27 71-27s11 14 18 31l13 31-23 18c-13 10-40 23-59 30l-36 12-95 3-95 4-37-10zm442 5c0-6 31-60 197-339l83-139v-246h80v255l131 225c72 124 134 231 136 238l5 12h-80l-113-186c-62-102-116-187-120-190-4-2-17 13-30 33-12 21-65 107-117 191l-95 152h-38c-22 0-39-3-39-6zm856-8c-76-28-123-77-132-138l-6-37 6-36 7-35 31-36c39-44 58-54 194-98l110-36 34-35 35-36v-78l-25-26-24-26-54-15-54-16-46 7c-64 9-136 38-178 70-20 15-36 25-38 24-16-25-36-59-36-64 0-3 27-23 60-44l60-39 50-12c63-15 156-15 218 0l49 11 37 31c20 16 44 44 53 61l16 32v100l-16 30c-31 61-83 93-220 136l-88 27-35 24-34 23-12 39-12 38 15 26 14 26 35 20 34 20 65-1 66-1 55-20c30-11 62-23 71-26l16-7 13 32 13 31-23 18c-13 10-40 23-59 30l-36 12-95 4-95 4-39-14zm444-21v-35h240v-660h80v660h240v70h-560v-35zm690-330v-365h510v70h-430v260h370v80h-370v250h410v70h-490v-365zm680 0v-365h80l2 303 3 302 133-268 134-268 21 3 22 3 130 257c72 142 133 258 138 258h7v-590h80v730h-107l-119-237c-65-131-126-251-135-267l-17-28-134 266-133 266h-105v-365zm1073 351c-53-17-93-49-115-89l-17-32-1-48v-48l14-33 14-33 33-26 34-27 123-41 123-41 29-25 29-24 7-35 6-34-12-31-13-30-41-21-41-22h-140l-58 27c-32 14-71 35-87 47-36 26-35 26-50-10l-13-31 17-18c10-10 43-32 74-49l57-30 65-10 65-10 63 9c73 10 104 25 149 69l33 32 11 41 11 41-6 40c-4 22-16 55-27 73l-21 34-52 26c-28 14-91 39-140 55s-102 38-119 50l-29 21-14 33-14 34 14 33 14 34 38 19 39 18 65-1 65-1 64-26c36-14 66-26 67-26 4 0 34 57 34 65 0 3-26 18-57 32l-57 26-95 4-96 3-42-14z"/></g><g fill="#166fe2" transform="matrix(.1 0 0 -.1 0 900)"><path d="M1791 5758c-23-55-111-311-111-323 0-7 8-16 18-20 19-8 341-122 382-135 14-5 90-32 170-60s167-58 194-66l48-16 9 9c9 9 108 281 116 320l5 23-28 11c-16 6-85 31-154 54-69 24-190 67-270 95s-188 66-240 85c-52 18-103 36-112 40l-18 7-9-24zm962-330c-6-7-27-62-47-123-58-168-107-299-117-309l-8-9-63 21c-35 11-134 45-220 76l-156 55-10-12c-11-15-122-328-122-345 0-7 2-12 4-12s55-18 117-41c63-22 155-54 204-71 50-17 96-37 104-44l14-13-21-63c-19-59-42-125-123-353-35-100-56-145-67-145-4 0-25 7-47 14-22 8-118 42-214 76l-175 60-8-8c-13-13-133-352-126-357 2-1 98-35 213-75 116-40 216-79 223-85l13-12-15-39c-8-21-45-124-82-227l-66-189 9-9c7-7 79-35 248-94 22-8 99-35 170-60 72-26 161-56 199-67l69-20 50 6c83 11 167 68 202 136 15 29 61 154 77 210 5 19 23 69 38 110s51 143 80 225c79 227 119 343 145 415 13 36 40 111 59 168 20 56 51 146 70 200 19 53 66 188 105 298l71 202v120l-16 37c-32 79-94 132-184 161-19 7-93 33-165 58-71 26-161 58-200 71-38 13-103 35-143 49-87 30-77 29-89 14zm1065-1890l-38-10-40-36-41-37-10-43-9-43 11-42 11-41 35-32 35-32 115-38c164-55 198-80 209-155l5-34-19-31-20-31-38-18-39-19-58-4-58-4-62 22c-34 13-79 34-101 47l-39 25-8-14c-5-7-9-18-9-25 0-17 53-53 119-79l56-24h158l38 11 38 12 37 30 36 31 14 32c26 62 14 136-29 182-30 33-78 56-192 93l-97 32-39 37-39 37v81l30 31 30 30 55 12 55 12 58-12c31-7 72-19 90-28l33-15 15 6 14 5v40l-22 12c-12 7-45 18-73 25l-50 14-65-1c-36-1-82-6-102-11zm452 6c0-7 87-156 204-349l61-100 5-125 5-125 23-3 22-3v228l31 59c17 32 46 84 64 114 113 190 172 296 168 303-2 4-12 7-22 7h-19l-69-112c-39-62-90-146-114-186l-44-72-20 2-20 3-111 180-110 180-27 3c-15 2-27 0-27-4zm840-7l-35-11-41-42-41-41-5-39c-6-47 4-96 26-129l16-25 48-23c26-13 87-37 136-52 49-16 103-38 120-50l31-20 19-39 19-38-12-38-12-39-27-19c-40-28-88-42-143-42h-48l-58 21c-32 12-72 32-90 45-17 13-36 24-41 24-10 0-22-23-22-41 0-14 72-58 131-79l54-20h152l44 15 44 16 28 27c16 15 35 39 43 54l14 27v40c0 108-47 150-234 211l-97 32-34 29-34 30-6 29-7 30 7 30 7 30 27 20c16 10 49 25 74 32l46 12 68-13c37-8 81-20 96-28l29-14 14 5 14 5v40l-27 15c-68 34-220 46-293 23zm457 6c-4-3-7-15-7-25v-18h215l12-8 13-8 2-320 3-319 28-3 27-3v637l12 12 12 12h217l-3 23-3 22-261 3-260 2-7-7zm683-348v-355l243 2 242 3v40l-210 5-210 5v270l178 3 177 2 2 10c0 6 1 16 2 23l1 12-180 5-180 5v270l203 3 203 2-3 23-3 22-232 3-233 2v-355zm685 342c-3-6-4-165-3-352l3-340 22-3 22-3 3 290c2 159 6 292 9 295 3 4 12 4 20 1l14-5 128-255 127-255h10c15 0 40 44 162 288l111 222h37l2-287 3-288 23-3 22-3-2 353-3 353-31 3-31 3-14-17c-8-9-69-125-135-258l-122-241h-35l-119 235c-65 129-126 245-134 257l-14 23h-71l-4-13zm1058-1c-18-7-46-22-64-35l-31-23-14-34c-17-40-18-92-3-131 23-62 66-89 224-141 44-15 95-36 112-47l33-19 16-34 16-35-6-35-5-35-22-23-22-23-45-15c-85-29-186-13-276 44l-47 30-10-5c-5-4-9-15-9-25v-19l33-23c36-27 65-41 116-57l34-11h155l38 16c57 24 92 52 111 87l16 32v112l-22 32-22 31-42 24c-23 14-85 38-137 55l-95 31-37 25-37 25-10 35-9 35 5 22c3 13 15 33 26 46l21 23 55 15 54 16 43-6c23-3 70-15 104-27l62-21 9 13c20 32 3 46-91 75l-45 14-75-1-75-1-32-12z"/></g></g></svg>
