<?xml version="1.0" encoding="UTF-8"?>
<svg id="Calque_1" xmlns="http://www.w3.org/2000/svg" version="1.1" viewBox="0 0 250 250">
  <!-- Generator: Adobe Illustrator 29.6.1, SVG Export Plug-In . SVG Version: 2.1.1 Build 9)  -->
  <defs>
    <style>
      .st0 {
        fill: none;
      }

      .st1 {
        fill: #fbb917;
      }

      .st2 {
        fill: #0066a4;
      }
    </style>
  </defs>
  <circle class="st0" cx="125" cy="125" r="125"/>
  <polygon class="st1" points="66.98 165.06 69.47 166.06 94.04 175.86 103.85 151.62 79.28 141.82 76.78 140.83 74.29 139.83 51.63 130.79 41.93 155.07 64.48 164.06 66.98 165.06"/>
  <polygon class="st1" points="90.61 106.61 93.11 107.61 117.67 117.41 127.47 93.17 102.91 83.38 100.42 82.38 97.9 81.38 75.02 72.25 65.32 96.52 88.11 105.62 90.61 106.61"/>
  <polygon class="st1" points="71.52 65.06 74.02 66.06 97.24 75.32 106.76 51.76 83.54 42.49 81.04 41.49 78.54 40.5 53.98 30.7 44.45 54.27 69.02 64.07 71.52 65.06"/>
  <polygon class="st1" points="94.53 181.84 92.03 180.84 67.47 171.04 57.54 195.57 82.11 205.37 84.61 206.37 87.11 207.36 110.33 216.63 120.25 192.1 97.03 182.84 94.53 181.84"/>
  <polygon class="st1" points="110.86 148.62 134.08 157.89 143.88 133.65 120.66 124.39 118.16 123.39 115.66 122.4 91.1 112.6 81.29 136.83 105.86 146.63 108.36 147.63 110.86 148.62"/>
  <g>
    <polygon class="st2" points="131.99 89.18 134.49 90.18 157.71 99.44 167.23 75.88 144.01 66.61 141.51 65.62 139.01 64.62 114.45 54.82 104.92 78.39 129.49 88.19 131.99 89.18"/>
    <path class="st2" d="M133.82,95.71l-9.81,24.23,23.22,9.26,2.5,1,2.5,1-1.01,2.49-1,2.5-9.8,24.23-1,2.5-1.01,2.49-2.5-1-2.5-1-23.22-9.26-9.8,24.23,23.22,9.27,2.5,1,2.5,1-1,2.5-1.01,2.49-9.93,24.53,39.76,15.86c8.87,3.54,19.02-.82,22.56-9.68l3.38-8.46,1-2.5,1-2.5,9.7-24.28,1-2.5,1-2.5,9.7-24.28,1-2.5,1-2.5,9.7-24.28,1-2.5,1-2.5,2.99-7.49c3.54-8.86-.82-19.01-9.69-22.54l-39.19-15.63-9.52,23.57-1.01,2.49-1,2.5-2.5-1-2.51-1-23.21-9.26v.02Z"/>
  </g>
</svg>